<svg id="レイヤー_1" data-name="レイヤー 1" xmlns="http://www.w3.org/2000/svg" viewBox="0 0 2583.33 533.04"><defs><style>.cls-1{fill:#fe7657;}.cls-2{fill:#3e3a39;}.cls-3{fill:#26ade3;}.cls-4{fill:#9bc864;}</style></defs><title>logo</title><path class="cls-1" d="M104.05,286.41h52.57q45.23,0,61,3.94a67.76,67.76,0,0,1,37,22.89Q269,330.55,269,356.75q0,26.38-14,43.52t-38.57,23.05q-18,4.31-67.12,4.31H130.43V550.36H104.05Zm26.38,25.84v89.54l44.68.54q27.07,0,39.65-4.92a40.75,40.75,0,0,0,19.74-15.94,44.17,44.17,0,0,0,7.18-24.63,43.56,43.56,0,0,0-7.18-24.26,39.7,39.7,0,0,0-18.93-15.67q-11.76-4.65-38.5-4.66Z" transform="translate(-104.05 -17.33)"/><path class="cls-2" d="M515.77,289.14,637.61,550.36h-28.2l-41.1-85.94H455.78l-40.7,85.94H386L509.37,289.14Zm-3.29,55.5L467.71,439.2H557Z" transform="translate(-104.05 -17.33)"/><path class="cls-2" d="M787,289h26.65v98.1L918.11,289h35.11L827.66,406.24,963,550.36H928.2L813.62,428.6V550.36H787Z" transform="translate(-104.05 -17.33)"/><path class="cls-2" d="M1103.24,286.38H1129V441.82q0,27.68,1,34.48,1.9,15.26,8.92,25.48t21.53,17.15a67.34,67.34,0,0,0,29.24,6.92,57.72,57.72,0,0,0,24.51-5.43,54.67,54.67,0,0,0,19.6-15,61.61,61.61,0,0,0,11.56-23.29q2.61-9.79,2.62-40.26V286.38h25.73V441.82q0,34.5-6.74,55.76t-27,37q-20.22,15.76-48.93,15.76-31.14,0-53.39-14.88T1108,496.09q-4.73-15-4.72-54.27Z" transform="translate(-104.05 -17.33)"/><path class="cls-3" d="M1415.27,312.22V286.38h144.65v25.84h-58.87V550.36h-26.92V312.22Z" transform="translate(-104.05 -17.33)"/><path class="cls-2" d="M1806.15,289l121.91,261.41h-28.22l-41.11-86H1746.11l-40.73,86h-29.13L1799.75,289Zm-3.3,55.54-44.8,94.63h89.39Z" transform="translate(-104.05 -17.33)"/><path class="cls-4" d="M2039.53,497.77l21.12-12.68q22.32,41.09,51.58,41.08a49.43,49.43,0,0,0,23.5-5.82,41.26,41.26,0,0,0,16.74-15.65,40.55,40.55,0,0,0,5.76-20.8q0-12.51-8.47-24.52-11.66-16.58-42.61-39.9-31.09-23.5-38.72-34-13.18-17.58-13.18-38.05a57.63,57.63,0,0,1,7.77-29.58,55.68,55.68,0,0,1,21.9-21.07,63.22,63.22,0,0,1,30.69-7.69,65.41,65.41,0,0,1,32.89,8.71q15.28,8.71,32.39,32.05l-20.31,15.39q-14-18.6-23.92-24.53a41.36,41.36,0,0,0-21.56-5.92q-15,0-24.59,9.14a29.85,29.85,0,0,0-9.56,22.49,38.24,38.24,0,0,0,3.38,15.72q3.39,7.62,12.34,16.57,4.9,4.75,32.13,24.87,32.29,23.84,44.29,42.44t12,37.37q0,27-20.54,47t-50,20a73.24,73.24,0,0,1-41.08-12.09Q2055.07,526.18,2039.53,497.77Z" transform="translate(-104.05 -17.33)"/><path class="cls-2" d="M2561.57,326.83q-38.09-37.74-94.61-37.73a128.26,128.26,0,0,0-112.12,65.31,132.32,132.32,0,0,0-17.34,66.41q0,53.79,38.05,91.64t93.44,37.9q54.72,0,92.66-38.05t38-92.66Q2599.62,364.57,2561.57,326.83Zm-1.48,146.88a100.47,100.47,0,0,1-38.44,38.44,106.15,106.15,0,0,1-53.6,14q-43.37,0-74.07-30.47t-30.78-74.93c0-20,4.61-38.05,13.91-54.3a104.64,104.64,0,0,1,130.94-45.23,58.46,58.46,0,1,0,62.66,71.17,113.72,113.72,0,0,1,3.2,27.19Q2573.91,449.33,2560.09,473.71Z" transform="translate(-104.05 -17.33)"/><path class="cls-2" d="M124,71.35a104.93,104.93,0,0,1-11,17,57.29,57.29,0,0,0-6.11-13,96.6,96.6,0,0,0,11.87-16.4A130.21,130.21,0,0,0,133,24.33c.54-2.47,1-4.8,1.23-7l13.52,3.29q-1.85,5.64-4.25,12.77-2.61,7.83-7.55,19V131q0,9.68.68,16.41H122.72a148.36,148.36,0,0,0,.89-16.62V87.62Q123.54,81.25,124,71.35Zm57.46,24.44H160.89a104.85,104.85,0,0,0-11.74.55,107.84,107.84,0,0,0,.48-10.78V66.14a97,97,0,0,0-.48-11.06,127.21,127.21,0,0,0,12.76.49h22.32c0-1.42.06-2.73.06-3.92,0-.78,0-3.36-.06-7.76H159.65a104.15,104.15,0,0,0-13.25.69V31.74a89.17,89.17,0,0,0,14.42.83h23.34a109.9,109.9,0,0,0-.9-15h13.87a127.48,127.48,0,0,0-.61,15h26.56a113.23,113.23,0,0,0,15.17-.83V44.58a114.17,114.17,0,0,0-13.73-.69H196.58V46c0,3.07,0,6.27-.06,9.62H218q8.37,0,13.25-.49a91.79,91.79,0,0,0-.48,11.61V84.33a103.92,103.92,0,0,0,.48,12,138,138,0,0,0-13.87-.55H193.56Q191,109.4,185.67,118q20.79,13,54.09,14.83a60.78,60.78,0,0,0-3.29,6.87,56.68,56.68,0,0,0-2.13,6.18Q201.19,142,178.6,127a67.37,67.37,0,0,1-13.53,10.85,125.21,125.21,0,0,1-18.88,8.78,47.26,47.26,0,0,0-7.41-11q19.64-5.56,30.69-15.79a100.66,100.66,0,0,1-9.41-10l-2.13-2.48c-.82-1-1.58-1.87-2.26-2.6l10.64-5.91q2.88,5.64,9.95,12.15A53.85,53.85,0,0,0,181.48,95.79Zm2.54-29H161.78v18H183Q183.74,77.12,184,66.76Zm12.15,0q-.34,9.74-1.17,18h23.41v-18Z" transform="translate(-104.05 -17.33)"/><path class="cls-2" d="M342.25,89.07l-3.09-14.22c1.65-.13,3.11-.32,4.4-.54q1.57-.28,10.16-2.2,11.17-2.48,18.8-3.71a140.82,140.82,0,0,1,23.69-2.19q15.51,0,24.23,5.9Q431,79.33,432.73,93a33.22,33.22,0,0,1,.27,4.19q0,14.76-11,25.74-12.9,12.84-38.38,17-2.94.48-14.75,1.86a43.46,43.46,0,0,0-5.08-13.46h2.12a97.28,97.28,0,0,0,12.22-.89q14.28-1.92,22.52-5.77,10.23-4.86,15.1-12.35A22.17,22.17,0,0,0,419.34,97q0-8-5.15-12.77-6-5.49-19.15-5.49-13.53,0-36.93,5.49A104.84,104.84,0,0,0,342.25,89.07Z" transform="translate(-104.05 -17.33)"/><path class="cls-2" d="M544.49,55.57l-.83-15.45c2.06.09,3.71.14,4.94.14q3.3,0,8.59-.41,32.32-2.34,82.85-4.54,4.26-.2,11.54-.68a26.27,26.27,0,0,0,4.8-.76l1,14.9c-1.1-.05-1.9-.07-2.4-.07a54.46,54.46,0,0,0-15.31,2.47,68.84,68.84,0,0,0-17.5,8q-12.36,7.69-18.88,18.2a33.53,33.53,0,0,0-5.49,18q0,12,9.88,19.36,7,5.22,20.87,7.69a55.48,55.48,0,0,0,9,1c.54,0,1.41,0,2.6-.07l-2.19,15.92c-1.24-.27-2.77-.57-4.6-.89a116.18,116.18,0,0,1-18.74-4q-16.7-5.22-24.72-16.47a35.63,35.63,0,0,1-6.59-21.29q0-20.1,18.4-37.2A53.94,53.94,0,0,1,612,51.58c1.55-.87,3.75-2,6.58-3.36q-10.83,1.65-30.4,3Q551.69,53.79,544.49,55.57Z" transform="translate(-104.05 -17.33)"/><path class="cls-2" d="M829.65,107.67a82,82,0,0,0,22.24,14.76,148.38,148.38,0,0,0,29,10,59.47,59.47,0,0,0-7.56,12,132.14,132.14,0,0,1-28.48-12.15q-15.58-9.25-24.3-20.11c.09,1.37.18,3,.27,4.87.18,3.39.28,5.56.28,6.52v8.66a80.13,80.13,0,0,0,1,14.55H807.68a90.2,90.2,0,0,0,1-14.62v-8.52q0-1.77.27-6.38c.1-2.06.19-3.68.28-4.88a96.05,96.05,0,0,1-22.79,19.23,150.91,150.91,0,0,1-27.94,12.63,46.71,46.71,0,0,0-8-11.4q31.85-8.51,48.94-25.19H770.75a125.82,125.82,0,0,0-16.34.82V95.59q4.74.82,16.34.82h37.82a49.71,49.71,0,0,0-.62-8.3h13.87a47.6,47.6,0,0,0-.55,8.3h39a112.16,112.16,0,0,0,16.41-.82v12.9a119.7,119.7,0,0,0-16.54-.82ZM787.29,70.46A190.27,190.27,0,0,1,762,85q-2.4,1.17-5.63,3l-4.8-12a81.84,81.84,0,0,0,12-4.6,179.44,179.44,0,0,0,20.73-11.74ZM763.61,26.11a164.94,164.94,0,0,1,21.14,20L776.17,55a156.78,156.78,0,0,0-10.78-11.74,114.24,114.24,0,0,0-10.3-8.93ZM805.21,32A74.73,74.73,0,0,0,810,17.4l13,1.78q-3.3,8-5.56,12.84h12.7c4.34,0,7.87-.14,10.57-.41a106.21,106.21,0,0,0-.42,11.19V74.31a105.19,105.19,0,0,0,.42,11.46c-2.75-.28-6.16-.41-10.23-.41h-30c-4.39,0-8,.13-10.71.41.28-2.7.41-6.47.41-11.33V42.73c0-4.95-.18-8.65-.41-11.12q3.92.41,10.92.41Zm-3.57,10.23v11H829v-11Zm0,21V75.13H829V63.25Zm40.84,5.91L849,60a309.06,309.06,0,0,1,31,17.43l-6.94,10q-6.59-4.81-14-9.34Q850.59,73.14,842.48,69.16Zm24.17-43.53,9.54,8.31Q862.25,49,852,56.46l-8.1-8.65A109.61,109.61,0,0,0,866.65,25.63Z" transform="translate(-104.05 -17.33)"/><path class="cls-2" d="M989.11,24.74l16.62.21A163.27,163.27,0,0,0,1004.21,43q-.4,8-1.09,34.12-.29,11.46-.28,18.74a118.05,118.05,0,0,0,.62,13.46q2.06,17.09,22.59,17.09a37.35,37.35,0,0,0,19.56-5.22q13.25-7.89,19.56-28.62a101.31,101.31,0,0,0,3.09-13.46,90.3,90.3,0,0,0,7.62,5.77,49.55,49.55,0,0,0,6.52,3.43q-3.08,10.09-5.62,16.13a81,81,0,0,1-6.11,12.22,49.67,49.67,0,0,1-7.49,9.13q-15,14.56-37.89,14.56-15.18,0-24-6.12a28.16,28.16,0,0,1-11-15.78q-2-6.87-2-18.81,0-9.83,1.1-57c.09-4.35.13-7.34.13-9A77.92,77.92,0,0,0,989.11,24.74Z" transform="translate(-104.05 -17.33)"/><path class="cls-2" d="M1189.15,34.08l16.27.07a122.55,122.55,0,0,0-1.1,18.46A289.2,289.2,0,0,0,1206,84.26q1.52,14.2,5.35,23.61,4,9.69,8.59,9.68,3.49,0,6.31-6.45a108.71,108.71,0,0,0,7.42-24.92A69.89,69.89,0,0,0,1245.31,97q-4.39,16.13-9.41,25.12-6.59,11.74-16.41,11.74-8.37,0-15-8.78-9.88-13.19-12.84-41.47Q1190,68,1189.63,42.73A79.2,79.2,0,0,0,1189.15,34.08Zm71,12.77,12.22-6q25.61,30.35,31.24,73.25l-14.42,5.56a131.51,131.51,0,0,0-3.43-21.14Q1278.73,68.67,1260.2,46.85Z" transform="translate(-104.05 -17.33)"/><path class="cls-2" d="M1391.8,114.81l10.71-9.68a160.72,160.72,0,0,1,30.27,30.48l-11.53,10.71Q1407.45,126.9,1391.8,114.81Z" transform="translate(-104.05 -17.33)"/><path class="cls-2" d="M1648.26,105.88h-8.58q-11.19.08-15.37.48a128.15,128.15,0,0,0,.68-14.89V41.63q-.06-14.55-.68-18a123,123,0,0,0,14.75.69h62.54a120.68,120.68,0,0,0,14.83-.69q-.54,3.16-.69,18V91.47a119.34,119.34,0,0,0,.69,14.89q-4.32-.48-15.24-.48H1689v23.21c0,1.92.59,3.11,1.79,3.57q2.19.89,12.49.89,11,0,13.87-1.3,2.6-1.17,3.57-5.77a112.69,112.69,0,0,0,1.44-14.21,53.81,53.81,0,0,0,12.22,5.08,115.55,115.55,0,0,1-2.2,14.69q-1.58,6.18-4.12,8.65t-7.75,3.43q-5.5,1.09-18.2,1.1-13,0-18-1.17t-6.59-4c-.82-1.33-1.24-3.45-1.24-6.38V105.88h-14.48a49.53,49.53,0,0,1-3.78,13.05q-10,22.17-44.89,29.65a43.08,43.08,0,0,0-6.87-11.67,107.69,107.69,0,0,0,17-4.18q13.65-4.87,19.9-13.87A32.65,32.65,0,0,0,1648.26,105.88Zm-10.91-69.95V47.81h66V35.93Zm0,22.79V70.8h66V58.72Zm0,23V94.63h66V81.72Z" transform="translate(-104.05 -17.33)"/><path class="cls-2" d="M1826.67,55.57l-.82-15.45c2.06.09,3.71.14,5,.14q3.29,0,8.57-.41,32.34-2.34,82.86-4.54,4.26-.2,11.53-.68a26.24,26.24,0,0,0,4.81-.76l1,14.9c-1.09-.05-1.9-.07-2.4-.07a54.4,54.4,0,0,0-15.31,2.47,68.84,68.84,0,0,0-17.5,8Q1892,66.9,1885.44,77.4a33.54,33.54,0,0,0-5.5,18q0,12,9.89,19.36,7,5.22,20.87,7.69a55.38,55.38,0,0,0,9,1c.55,0,1.42,0,2.61-.07l-2.2,15.92c-1.23-.27-2.77-.57-4.59-.89a116.42,116.42,0,0,1-18.74-4q-16.69-5.22-24.72-16.47a35.63,35.63,0,0,1-6.59-21.29q0-20.1,18.4-37.2a53.94,53.94,0,0,1,10.37-7.9q2.32-1.3,6.58-3.36-10.85,1.65-30.41,3Q1833.89,53.79,1826.67,55.57Z" transform="translate(-104.05 -17.33)"/><path class="cls-2" d="M2111.84,107.67a82,82,0,0,0,22.24,14.76,148.38,148.38,0,0,0,29,10,59.44,59.44,0,0,0-7.55,12,132,132,0,0,1-28.49-12.15q-15.59-9.25-24.31-20.11c.1,1.37.19,3,.28,4.87q.27,5.09.27,6.52v8.66a80,80,0,0,0,1,14.55h-14.48a90.2,90.2,0,0,0,1-14.62v-8.52q0-1.77.27-6.38c.1-2.06.19-3.68.28-4.88a95.86,95.86,0,0,1-22.79,19.23,150.91,150.91,0,0,1-27.94,12.63,47,47,0,0,0-8-11.4q31.84-8.51,48.94-25.19h-28.69a125.71,125.71,0,0,0-16.34.82V95.59q4.73.82,16.34.82h37.82a49.71,49.71,0,0,0-.62-8.3H2104a48.61,48.61,0,0,0-.55,8.3h39a112.09,112.09,0,0,0,16.4-.82v12.9a119.6,119.6,0,0,0-16.54-.82Zm-42.36-37.21A190.27,190.27,0,0,1,2044.15,85q-2.4,1.17-5.63,3l-4.8-12a81.84,81.84,0,0,0,12-4.6,178.61,178.61,0,0,0,20.73-11.74ZM2045.8,26.11a164.94,164.94,0,0,1,21.14,20L2058.36,55a154.67,154.67,0,0,0-10.78-11.74,114.24,114.24,0,0,0-10.3-8.93ZM2087.4,32a74.73,74.73,0,0,0,4.8-14.62l13.05,1.78q-3.3,8-5.56,12.84h12.7c4.34,0,7.87-.14,10.57-.41a106.87,106.87,0,0,0-.41,11.19V74.31a105.93,105.93,0,0,0,.41,11.46c-2.75-.28-6.16-.41-10.23-.41h-30c-4.39,0-8,.13-10.71.41.27-2.7.41-6.47.41-11.33V42.73c0-4.95-.18-8.65-.41-11.12q3.92.41,10.91.41Zm-3.57,10.23v11h27.32v-11Zm0,21V75.13h27.32V63.25Zm40.84,5.91L2131.2,60a307.93,307.93,0,0,1,31,17.43l-6.94,10q-6.58-4.81-14-9.34Q2132.78,73.14,2124.67,69.16Zm24.17-43.53,9.54,8.31Q2144.45,49,2134.22,56.46l-8.11-8.65A109.18,109.18,0,0,0,2148.84,25.63Z" transform="translate(-104.05 -17.33)"/><path class="cls-2" d="M2271.31,24.74l16.61.21A161.49,161.49,0,0,0,2286.41,43q-.42,8-1.1,34.12-.27,11.46-.28,18.74a118.05,118.05,0,0,0,.62,13.46q2.05,17.09,22.59,17.09a37.33,37.33,0,0,0,19.56-5.22q13.24-7.89,19.57-28.62a103.08,103.08,0,0,0,3.08-13.46,88.66,88.66,0,0,0,7.63,5.77,48.3,48.3,0,0,0,6.52,3.43q-3.09,10.09-5.63,16.13a80.05,80.05,0,0,1-6.11,12.22,50,50,0,0,1-7.48,9.13q-15,14.56-37.9,14.56-15.17,0-24-6.12a28.21,28.21,0,0,1-11-15.78q-2-6.87-2-18.81,0-9.83,1.1-57c.09-4.35.14-7.34.14-9A80.3,80.3,0,0,0,2271.31,24.74Z" transform="translate(-104.05 -17.33)"/><path class="cls-2" d="M2471.34,34.08l16.27.07a121.24,121.24,0,0,0-1.1,18.46,289.2,289.2,0,0,0,1.65,31.65q1.5,14.2,5.35,23.61,4,9.69,8.58,9.68,3.51,0,6.32-6.45a108.22,108.22,0,0,0,7.41-24.92A70.68,70.68,0,0,0,2527.49,97q-4.38,16.13-9.4,25.12-6.6,11.74-16.41,11.74-8.37,0-15-8.78-9.88-13.19-12.84-41.47-1.65-15.65-2.06-40.91A81.82,81.82,0,0,0,2471.34,34.08Zm71,12.77,12.22-6q25.6,30.35,31.24,73.25l-14.42,5.56A130.49,130.49,0,0,0,2568,98.54Q2560.93,68.67,2542.39,46.85Z" transform="translate(-104.05 -17.33)"/><path class="cls-2" d="M2601.31,289.31h36.07v10.33h-11.59v29H2612.9v-29h-11.59Z" transform="translate(-104.05 -17.33)"/><path class="cls-2" d="M2642.35,328.65V289.31h15.57l6.94,24.53,6.94-24.53h15.58v39.34h-11.59v-12l.17-6.12.65-7.1h-.11l-7.16,25.24h-9l-7.15-25.24h-.11l.54,5.79.28,6.12v13.33Z" transform="translate(-104.05 -17.33)"/></svg>